<?xml version="1.0" encoding="utf-8"?>
<!-- Generator: Adobe Illustrator 16.0.0, SVG Export Plug-In . SVG Version: 6.00 Build 0)  -->
<!DOCTYPE svg PUBLIC "-//W3C//DTD SVG 1.1//EN" "http://www.w3.org/Graphics/SVG/1.1/DTD/svg11.dtd">
<svg version="1.1" id="Layer_1" xmlns="http://www.w3.org/2000/svg" xmlns:xlink="http://www.w3.org/1999/xlink" x="0px" y="0px"
	 width="32px" height="32px" viewBox="0 0 32 32" enable-background="new 0 0 32 32" xml:space="preserve">
<path fill-rule="evenodd" clip-rule="evenodd" fill="#FFFFFF" d="M16,32C7.163,32,0,24.836,0,16C0,7.163,7.163,0,16,0
	c8.836,0,16,7.163,16,16C32,24.836,24.836,32,16,32z M16,2C8.268,2,2,8.268,2,16c0,7.731,6.268,14,14,14c7.731,0,14-6.269,14-14
	C30,8.268,23.731,2,16,2z"/>
<path fill="#FFFFFF" d="M21.952,12.598c-0.18-1.946-1.857-2.604-3.977-2.798l0.009-2.699l-1.643-0.006l-0.01,2.628
	c-0.432-0.002-0.873,0.005-1.311,0.012L15.03,7.09l-1.642-0.006l-0.011,2.698c-0.355,0.006-0.705,0.011-1.045,0.01V9.784
	l-2.266-0.008l-0.006,1.754c0,0,1.213-0.019,1.193,0.003c0.665,0.002,0.88,0.389,0.942,0.723l-0.011,3.075
	c0.046,0,0.105,0.003,0.174,0.012c-0.055,0-0.113,0-0.174,0l-0.016,4.308c-0.029,0.209-0.154,0.541-0.619,0.541
	c0.021,0.018-1.194-0.004-1.194-0.004l-0.333,1.961l2.138,0.006c0.397,0.004,0.789,0.012,1.173,0.016l-0.008,2.729l1.64,0.006
	l0.01-2.701c0.451,0.014,0.886,0.018,1.312,0.018l-0.01,2.689l1.642,0.006l0.012-2.725c2.762-0.148,4.698-0.838,4.947-3.43
	c0.2-2.088-0.778-3.023-2.345-3.406C21.487,14.875,22.086,14.022,21.952,12.598L21.952,12.598z M19.632,18.426
	c-0.006,2.039-3.497,1.795-4.611,1.793l0.013-3.618C16.148,16.605,19.641,16.298,19.632,18.426z M18.887,13.321
	c-0.007,1.855-2.919,1.629-3.847,1.626l0.012-3.28C15.979,11.669,18.894,11.385,18.887,13.321z"/>
</svg>
