<?xml version="1.0" encoding="utf-8"?>
<!-- Generator: Adobe Illustrator 16.0.0, SVG Export Plug-In . SVG Version: 6.00 Build 0)  -->
<!DOCTYPE svg PUBLIC "-//W3C//DTD SVG 1.1//EN" "http://www.w3.org/Graphics/SVG/1.1/DTD/svg11.dtd">
<svg version="1.1" id="Layer_1" xmlns="http://www.w3.org/2000/svg" xmlns:xlink="http://www.w3.org/1999/xlink" x="0px" y="0px"
	 width="32px" height="32px" viewBox="0 0 32 32" enable-background="new 0 0 32 32" xml:space="preserve">
<path fill-rule="evenodd" clip-rule="evenodd" fill="#FFFFFF" d="M16,32C7.163,32,0,24.836,0,16C0,7.163,7.163,0,16,0
	c8.836,0,16,7.163,16,16C32,24.836,24.836,32,16,32z M16,2C8.268,2,2,8.268,2,16c0,7.731,6.268,14,14,14c7.731,0,14-6.269,14-14
	C30,8.268,23.731,2,16,2z M21,19.1c0,1.865-1.271,3.816-4.671,4.045v1.846h-1.338v-1.846c-2.215-0.127-3.903-0.997-5-2.18
	l1.097-1.328c0.833,0.934,2.171,1.765,3.903,1.951v-5.042c-2.237-0.581-4.54-1.286-4.54-3.837c0-2.136,1.908-3.651,4.54-3.837V6.984
	h1.338v1.909c1.82,0.145,3.268,0.85,4.343,1.908l-1.098,1.265c-0.877-0.912-2.018-1.432-3.245-1.598v4.523
	C18.588,15.593,21,16.382,21,19.1z M16.329,21.61c2.083-0.208,2.785-1.391,2.785-2.387c0-1.349-1.25-1.908-2.785-2.344V21.61z
	 M14.991,10.427c-1.558,0.105-2.653,0.976-2.653,2.179c0,1.141,1.162,1.639,2.653,2.053V10.427z"/>
</svg>
