<?xml version="1.0" encoding="utf-8"?>
<!-- Generator: Adobe Illustrator 16.0.0, SVG Export Plug-In . SVG Version: 6.00 Build 0)  -->
<!DOCTYPE svg PUBLIC "-//W3C//DTD SVG 1.1//EN" "http://www.w3.org/Graphics/SVG/1.1/DTD/svg11.dtd">
<svg version="1.1" id="Layer_1" xmlns="http://www.w3.org/2000/svg" xmlns:xlink="http://www.w3.org/1999/xlink" x="0px" y="0px"
	 width="70.252px" height="65px" viewBox="0 0 70.252 65" enable-background="new 0 0 70.252 65" xml:space="preserve">
<g>
	<path fill="#FFFFFF" d="M36.073,42h-3.111l-6.97-19h4.047l4.497,13.379L38.996,23h4.047L36.073,42z"/>
	<path fill="#FFFFFF" d="M46.267,19.252v-4.047h4.048v4.047H46.267z M46.379,42V23h3.823v19H46.379z"/>
	<path fill="#FFFFFF" d="M66.505,42v-1.724c-1.387,1.387-2.698,1.948-5.06,1.948s-3.935-0.562-5.097-1.724
		c-0.975-1.012-1.499-2.474-1.499-4.085c0-3.186,2.211-5.471,6.559-5.471h5.021v-1.349c0-2.398-1.199-3.561-4.16-3.561
		c-2.099,0-3.11,0.487-4.159,1.836L55.6,25.511c1.799-2.099,3.672-2.736,6.82-2.736c5.209,0,7.832,2.211,7.832,6.521V42H66.505z
		 M66.43,33.605h-4.46c-2.248,0-3.41,1.012-3.41,2.735c0,1.725,1.087,2.698,3.485,2.698c1.462,0,2.549-0.112,3.561-1.086
		c0.562-0.562,0.824-1.462,0.824-2.811V33.605z"/>
</g>
<g>
	<rect x="11" fill="#0BD691" width="6" height="42"/>
	<rect y="23" fill="#0BD691" width="6" height="42"/>
</g>
</svg>
